<svg xmlns="http://www.w3.org/2000/svg" width="30" height="30" viewBox="0 0 30 30" fill="none">
    <path opacity="0.5" d="M3.80615 14.6875C3.96343 15.5804 4.18491 16.614 4.44366 17.8215L4.97938 20.3215C5.58809 23.1621 5.89245 24.5825 6.92379 25.4163C7.95513 26.25 9.40772 26.25 12.3129 26.25H17.6866C20.5919 26.25 22.0444 26.25 23.0758 25.4163C24.1071 24.5825 24.4115 23.1621 25.0201 20.3215L25.5559 17.8215C25.8146 16.614 26.0361 15.5804 26.1934 14.6875H3.80615Z" fill="#828384"/>
    <path fill-rule="evenodd" clip-rule="evenodd" d="M11.5625 17.5C11.5625 16.9822 11.9822 16.5625 12.5 16.5625H17.5C18.0177 16.5625 18.4375 16.9822 18.4375 17.5C18.4375 18.0178 18.0177 18.4375 17.5 18.4375H12.5C11.9822 18.4375 11.5625 18.0178 11.5625 17.5Z" fill="#828384"/>
    <path d="M10.4117 3.33094C10.6432 2.86784 11.2064 2.68013 11.6695 2.91168C12.1326 3.14323 12.3203 3.70637 12.0887 4.16947L9.79508 8.75678C10.3991 8.75019 11.0581 8.75019 11.7775 8.75019H18.2226C18.9421 8.75019 19.6013 8.75019 20.2054 8.75678L17.9116 4.16947C17.6801 3.70637 17.8679 3.14323 18.331 2.91168C18.794 2.68013 19.3571 2.86784 19.5888 3.33094L22.3401 8.83385C24.0315 8.96379 25.0928 9.29555 25.7776 10.1427C26.3219 10.8159 26.498 11.6534 26.4333 12.8127H26.2503C26.3126 12.8127 26.3736 12.8188 26.4325 12.8304C26.4011 13.3737 26.3173 13.9874 26.194 14.6877H3.80672C3.68337 13.9874 3.5995 13.3737 3.56811 12.8303C3.62704 12.8188 3.68795 12.8127 3.75029 12.8127H3.56683C3.5021 11.6534 3.67826 10.8159 4.2225 10.1427C4.90735 9.2955 5.96876 8.96374 7.66024 8.83382L10.4117 3.33094Z" fill="#828384"/>
</svg>