<svg id="icon_facebook" xmlns="http://www.w3.org/2000/svg" width="9.527" height="19.083" viewBox="0 0 9.527 19.083">
  <path id="Path_37" data-name="Path 37" d="M1082.04-1218.527c0-.056.01-.111.01-.167q0-4.092,0-8.185v-.183h-2.758v-3.4h2.758c0-.09,0-.162,0-.234.008-.994-.018-1.99.034-2.982a4.054,4.054,0,0,1,1.4-3.024,3.894,3.894,0,0,1,2.545-.911c.893-.008,1.787.066,2.68.106a.617.617,0,0,1,.114.027v3.024c-.075,0-.147,0-.219,0-.652.01-1.306-.009-1.955.04a1.1,1.1,0,0,0-1.15,1.119c-.055.933-.014,1.873-.014,2.83h3.056l-.423,3.393h-2.647c-.005.074-.013.134-.013.193q0,4.092,0,8.185c0,.055.01.11.016.166Z" transform="translate(-1079.293 1237.611)" fill="#67718e"/>
</svg>
