<svg id="icon_instagram" xmlns="http://www.w3.org/2000/svg" width="19.083" height="19.111" viewBox="0 0 19.083 19.111">
  <path id="Path_39" data-name="Path 39" d="M-226.889-1294.351h-5.752c-.117-.01-.234-.027-.351-.03a10.812,10.812,0,0,1-2.261-.23,4.894,4.894,0,0,1-3.459-2.761,6.862,6.862,0,0,1-.574-2.906c-.021-2.06-.04-4.12-.03-6.18a12.442,12.442,0,0,1,.251-2.95,4.884,4.884,0,0,1,3.029-3.559,7.36,7.36,0,0,1,2.725-.464c1.942-.021,3.884-.037,5.826-.03a14.478,14.478,0,0,1,3.048.216,4.894,4.894,0,0,1,3.8,3.27,7.867,7.867,0,0,1,.391,2.682c.007,2.2.013,4.406,0,6.61a12.867,12.867,0,0,1-.151,1.876,4.966,4.966,0,0,1-1.768,3.17,5.7,5.7,0,0,1-3.365,1.211C-225.983-1294.4-226.436-1294.375-226.889-1294.351Zm-2.877-1.69v-.029c.5,0,1.009.015,1.513,0,1.087-.039,2.183-.025,3.259-.162a3.117,3.117,0,0,0,2.822-2.5,8.338,8.338,0,0,0,.2-1.811q.052-2.66.033-5.321a25.351,25.351,0,0,0-.146-2.775,3.166,3.166,0,0,0-2.661-2.882,11.289,11.289,0,0,0-2.021-.182q-2.688-.04-5.378-.009a18.78,18.78,0,0,0-2.492.16,3.138,3.138,0,0,0-2.746,2.6,10.677,10.677,0,0,0-.185,1.908c-.033,1.543-.045,3.087-.028,4.63.012,1.069.039,2.142.144,3.2a3.161,3.161,0,0,0,1.61,2.549,4.133,4.133,0,0,0,1.948.514C-232.516-1296.1-231.141-1296.074-229.766-1296.04Z" transform="translate(239.319 1313.462)" fill="#67718e"/>
  <path id="Path_40" data-name="Path 40" d="M-115.582-1184.69a4.915,4.915,0,0,1,4.92-4.909,4.907,4.907,0,0,1,4.9,4.9,4.914,4.914,0,0,1-4.908,4.921A4.92,4.92,0,0,1-115.582-1184.69Zm4.914,3.183a3.173,3.173,0,0,0,3.183-3.177,3.174,3.174,0,0,0-3.173-3.187,3.174,3.174,0,0,0-3.193,3.187A3.174,3.174,0,0,0-110.668-1181.506Z" transform="translate(120.22 1194.241)" fill="#67718e"/>
  <path id="Path_41" data-name="Path 41" d="M122.371-1225.3a1.131,1.131,0,0,1,1.115,1.178,1.138,1.138,0,0,1-1.169,1.109,1.147,1.147,0,0,1-1.119-1.181A1.139,1.139,0,0,1,122.371-1225.3Z" transform="translate(-107.686 1228.608)" fill="#67718e"/>
</svg>
