<svg width="0" height="0" class="hidden iconset">
    <symbol id="arrow-right" xmlns="http://www.w3.org/2000/svg" viewBox="0 0 43.009 22.621">
        <path id="arrow-right"
              d="M41.436,13.242,34.5,6.234a1.792,1.792,0,0,0-2.545,0h0a1.792,1.792,0,0,0,0,2.527l6.38,6.434H1.792A1.792,1.792,0,0,0,0,16.988H0A1.792,1.792,0,0,0,1.792,18.78H38.443l-6.488,6.47a1.792,1.792,0,0,0,0,2.545h0a1.792,1.792,0,0,0,2.545,0l6.936-6.954A5.377,5.377,0,0,0,41.436,13.242Z"
              transform="translate(0 -5.704)"/>
    </symbol>
    <symbol id="facebook" xmlns="http://www.w3.org/2000/svg" viewBox="0 0 9.527 19.083">
        <path d="M1082.04-1218.527c0-.056.01-.111.01-.167q0-4.092,0-8.185v-.183h-2.758v-3.4h2.758c0-.09,0-.162,0-.234.008-.994-.018-1.99.034-2.982a4.054,4.054,0,0,1,1.4-3.024,3.894,3.894,0,0,1,2.545-.911c.893-.008,1.787.066,2.68.106a.617.617,0,0,1,.114.027v3.024c-.075,0-.147,0-.219,0-.652.01-1.306-.009-1.955.04a1.1,1.1,0,0,0-1.15,1.119c-.055.933-.014,1.873-.014,2.83h3.056l-.423,3.393h-2.647c-.005.074-.013.134-.013.193q0,4.092,0,8.185c0,.055.01.11.016.166Z"
              transform="translate(-1079.293 1237.611)"/>
    </symbol>
    <symbol id="instagram-1" xmlns="http://www.w3.org/2000/svg" viewBox="0 0 19.083 19.111">
        <path d="M-226.889-1294.351h-5.752c-.117-.01-.234-.027-.351-.03a10.812,10.812,0,0,1-2.261-.23,4.894,4.894,0,0,1-3.459-2.761,6.862,6.862,0,0,1-.574-2.906c-.021-2.06-.04-4.12-.03-6.18a12.442,12.442,0,0,1,.251-2.95,4.884,4.884,0,0,1,3.029-3.559,7.36,7.36,0,0,1,2.725-.464c1.942-.021,3.884-.037,5.826-.03a14.478,14.478,0,0,1,3.048.216,4.894,4.894,0,0,1,3.8,3.27,7.867,7.867,0,0,1,.391,2.682c.007,2.2.013,4.406,0,6.61a12.867,12.867,0,0,1-.151,1.876,4.966,4.966,0,0,1-1.768,3.17,5.7,5.7,0,0,1-3.365,1.211C-225.983-1294.4-226.436-1294.375-226.889-1294.351Zm-2.877-1.69v-.029c.5,0,1.009.015,1.513,0,1.087-.039,2.183-.025,3.259-.162a3.117,3.117,0,0,0,2.822-2.5,8.338,8.338,0,0,0,.2-1.811q.052-2.66.033-5.321a25.351,25.351,0,0,0-.146-2.775,3.166,3.166,0,0,0-2.661-2.882,11.289,11.289,0,0,0-2.021-.182q-2.688-.04-5.378-.009a18.78,18.78,0,0,0-2.492.16,3.138,3.138,0,0,0-2.746,2.6,10.677,10.677,0,0,0-.185,1.908c-.033,1.543-.045,3.087-.028,4.63.012,1.069.039,2.142.144,3.2a3.161,3.161,0,0,0,1.61,2.549,4.133,4.133,0,0,0,1.948.514C-232.516-1296.1-231.141-1296.074-229.766-1296.04Z"
              transform="translate(239.319 1313.462)"/>
    </symbol>
    <symbol id="instagram-2" xmlns="http://www.w3.org/2000/svg" viewBox="0 0 19.083 19.111">
        <path d="M-115.582-1184.69a4.915,4.915,0,0,1,4.92-4.909,4.907,4.907,0,0,1,4.9,4.9,4.914,4.914,0,0,1-4.908,4.921A4.92,4.92,0,0,1-115.582-1184.69Zm4.914,3.183a3.173,3.173,0,0,0,3.183-3.177,3.174,3.174,0,0,0-3.173-3.187,3.174,3.174,0,0,0-3.193,3.187A3.174,3.174,0,0,0-110.668-1181.506Z"
              transform="translate(120.22 1194.241)"/>
    </symbol>
    <symbol id="instagram-3" xmlns="http://www.w3.org/2000/svg" viewBox="0 0 19.083 19.111">
        <path d="M122.371-1225.3a1.131,1.131,0,0,1,1.115,1.178,1.138,1.138,0,0,1-1.169,1.109,1.147,1.147,0,0,1-1.119-1.181A1.139,1.139,0,0,1,122.371-1225.3Z"
              transform="translate(-107.686 1228.608)"/>
    </symbol>
    <symbol id="linkedin-1" xmlns="http://www.w3.org/2000/svg" viewBox="0 0 19.847 19.758">
        <path d="M107.828,85.395h3.327l.274,2.884c.2-.265.336-.458.485-.643a4.768,4.768,0,0,1,4.5-1.762,4.548,4.548,0,0,1,4.03,4.31,13.721,13.721,0,0,1,.082,1.618c.008,2.419,0,4.838,0,7.257v.424h-4.24c0-.134,0-.263,0-.392,0-2.529,0-5.059-.02-7.588a4.174,4.174,0,0,0-.192-1.1,1.738,1.738,0,0,0-1.533-1.361,2.1,2.1,0,0,0-2.505,2.056c.014,2.662.007,5.324.007,7.986v.409h-4.216Z"
              transform="translate(-100.682 -79.736)"/>
    </symbol>
    <symbol id="linkedin-2" xmlns="http://www.w3.org/2000/svg" viewBox="0 0 19.847 19.758">
        <path d="M0,2.105A2.121,2.121,0,0,1,2.2,0,2.156,2.156,0,0,1,4.378,2.112,2.19,2.19,0,0,1,2.195,4.236,2.161,2.161,0,0,1,0,2.105"
              transform="translate(0 0.001)"/>
    </symbol>
</svg>