<svg width="0" height="0" class="hidden iconset">
<symbol id="arrow-right"   xmlns="http://www.w3.org/2000/svg" viewBox="0 0 43.009 22.621"><path id="arrow-right" d="M41.436,13.242,34.5,6.234a1.792,1.792,0,0,0-2.545,0h0a1.792,1.792,0,0,0,0,2.527l6.38,6.434H1.792A1.792,1.792,0,0,0,0,16.988H0A1.792,1.792,0,0,0,1.792,18.78H38.443l-6.488,6.47a1.792,1.792,0,0,0,0,2.545h0a1.792,1.792,0,0,0,2.545,0l6.936-6.954A5.377,5.377,0,0,0,41.436,13.242Z" transform="translate(0 -5.704)"/></symbol><symbol id="cart-1"   xmlns="http://www.w3.org/2000/svg" viewBox="0 0 30 30"><path opacity="0.5" d="M3.80615 14.6875C3.96343 15.5804 4.18491 16.614 4.44366 17.8215L4.97938 20.3215C5.58809 23.1621 5.89245 24.5825 6.92379 25.4163C7.95513 26.25 9.40772 26.25 12.3129 26.25H17.6866C20.5919 26.25 22.0444 26.25 23.0758 25.4163C24.1071 24.5825 24.4115 23.1621 25.0201 20.3215L25.5559 17.8215C25.8146 16.614 26.0361 15.5804 26.1934 14.6875H3.80615Z"/></symbol><symbol id="cart-2"   xmlns="http://www.w3.org/2000/svg" viewBox="0 0 30 30"><path fill-rule="evenodd" clip-rule="evenodd" d="M11.5625 17.5C11.5625 16.9822 11.9822 16.5625 12.5 16.5625H17.5C18.0177 16.5625 18.4375 16.9822 18.4375 17.5C18.4375 18.0178 18.0177 18.4375 17.5 18.4375H12.5C11.9822 18.4375 11.5625 18.0178 11.5625 17.5Z"/></symbol><symbol id="cart-3"   xmlns="http://www.w3.org/2000/svg" viewBox="0 0 30 30"><path d="M10.4117 3.33094C10.6432 2.86784 11.2064 2.68013 11.6695 2.91168C12.1326 3.14323 12.3203 3.70637 12.0887 4.16947L9.79508 8.75678C10.3991 8.75019 11.0581 8.75019 11.7775 8.75019H18.2226C18.9421 8.75019 19.6013 8.75019 20.2054 8.75678L17.9116 4.16947C17.6801 3.70637 17.8679 3.14323 18.331 2.91168C18.794 2.68013 19.3571 2.86784 19.5888 3.33094L22.3401 8.83385C24.0315 8.96379 25.0928 9.29555 25.7776 10.1427C26.3219 10.8159 26.498 11.6534 26.4333 12.8127H26.2503C26.3126 12.8127 26.3736 12.8188 26.4325 12.8304C26.4011 13.3737 26.3173 13.9874 26.194 14.6877H3.80672C3.68337 13.9874 3.5995 13.3737 3.56811 12.8303C3.62704 12.8188 3.68795 12.8127 3.75029 12.8127H3.56683C3.5021 11.6534 3.67826 10.8159 4.2225 10.1427C4.90735 9.2955 5.96876 8.96374 7.66024 8.83382L10.4117 3.33094Z"/></symbol><symbol id="com001-1"   xmlns="http://www.w3.org/2000/svg" viewBox="0 0 24 24"><path opacity="0.3" d="M12 22C17.5228 22 22 17.5228 22 12C22 6.47715 17.5228 2 12 2C6.47715 2 2 6.47715 2 12C2 17.5228 6.47715 22 12 22Z"/></symbol><symbol id="com001-2"   xmlns="http://www.w3.org/2000/svg" viewBox="0 0 24 24"><path d="M19 10.4C19 10.3 19 10.2 19 10C19 8.9 18.1 8 17 8H16.9C15.6 6.2 14.6 4.29995 13.9 2.19995C13.3 2.09995 12.6 2 12 2C11.9 2 11.8 2 11.7 2C12.4 4.6 13.5 7.10005 15.1 9.30005C15 9.50005 15 9.7 15 10C15 11.1 15.9 12 17 12C17.1 12 17.3 12 17.4 11.9C18.6 13 19.9 14 21.4 14.8C21.4 14.8 21.5 14.8 21.5 14.9C21.7 14.2 21.8 13.5 21.9 12.7C20.9 12.1 19.9 11.3 19 10.4Z"/></symbol><symbol id="com001-3"   xmlns="http://www.w3.org/2000/svg" viewBox="0 0 24 24"><path d="M12 15C11 13.1 10.2 11.2 9.60001 9.19995C9.90001 8.89995 10 8.4 10 8C10 7.1 9.40001 6.39998 8.70001 6.09998C8.40001 4.99998 8.20001 3.90005 8.00001 2.80005C7.30001 3.10005 6.70001 3.40002 6.20001 3.90002C6.40001 4.80002 6.50001 5.6 6.80001 6.5C6.40001 6.9 6.10001 7.4 6.10001 8C6.10001 9 6.80001 9.8 7.80001 10C8.30001 11.6 9.00001 13.2 9.70001 14.7C7.10001 13.2 4.70001 11.5 2.40001 9.5C2.20001 10.3 2.10001 11.1 2.10001 11.9C4.60001 13.9 7.30001 15.7 10.1 17.2C10.2 18.2 11 19 12 19C12.6 20 13.2 20.9 13.9 21.8C14.6 21.7 15.3 21.5 15.9 21.2C15.4 20.5 14.9 19.8 14.4 19.1C15.5 19.5 16.5 19.9 17.6 20.2C18.3 19.8 18.9 19.2 19.4 18.6C17.6 18.1 15.7 17.5 14 16.7C13.9 15.8 13.1 15 12 15Z"/></symbol><symbol id="com007-1"   xmlns="http://www.w3.org/2000/svg" viewBox="0 0 24 24"><path opacity="0.3" d="M8 8C8 7.4 8.4 7 9 7H16V3C16 2.4 15.6 2 15 2H3C2.4 2 2 2.4 2 3V13C2 13.6 2.4 14 3 14H5V16.1C5 16.8 5.79999 17.1 6.29999 16.6L8 14.9V8Z"/></symbol><symbol id="com007-2"   xmlns="http://www.w3.org/2000/svg" viewBox="0 0 24 24"><path d="M22 8V18C22 18.6 21.6 19 21 19H19V21.1C19 21.8 18.2 22.1 17.7 21.6L15 18.9H9C8.4 18.9 8 18.5 8 17.9V7.90002C8 7.30002 8.4 6.90002 9 6.90002H21C21.6 7.00002 22 7.4 22 8ZM19 11C19 10.4 18.6 10 18 10H12C11.4 10 11 10.4 11 11C11 11.6 11.4 12 12 12H18C18.6 12 19 11.6 19 11ZM17 15C17 14.4 16.6 14 16 14H12C11.4 14 11 14.4 11 15C11 15.6 11.4 16 12 16H16C16.6 16 17 15.6 17 15Z"/></symbol><symbol id="com008-1"   xmlns="http://www.w3.org/2000/svg" viewBox="0 0 24 24"><path opacity="0.3" d="M4.425 20.525C2.525 18.625 2.525 15.525 4.425 13.525L14.825 3.125C16.325 1.625 18.825 1.625 20.425 3.125C20.825 3.525 20.825 4.12502 20.425 4.52502C20.025 4.92502 19.425 4.92502 19.025 4.52502C18.225 3.72502 17.025 3.72502 16.225 4.52502L5.82499 14.925C4.62499 16.125 4.62499 17.925 5.82499 19.125C7.02499 20.325 8.82501 20.325 10.025 19.125L18.425 10.725C18.825 10.325 19.425 10.325 19.825 10.725C20.225 11.125 20.225 11.725 19.825 12.125L11.425 20.525C9.525 22.425 6.425 22.425 4.425 20.525Z"/></symbol><symbol id="com008-2"   xmlns="http://www.w3.org/2000/svg" viewBox="0 0 24 24"><path d="M9.32499 15.625C8.12499 14.425 8.12499 12.625 9.32499 11.425L14.225 6.52498C14.625 6.12498 15.225 6.12498 15.625 6.52498C16.025 6.92498 16.025 7.525 15.625 7.925L10.725 12.8249C10.325 13.2249 10.325 13.8249 10.725 14.2249C11.125 14.6249 11.725 14.6249 12.125 14.2249L19.125 7.22493C19.525 6.82493 19.725 6.425 19.725 5.925C19.725 5.325 19.525 4.825 19.125 4.425C18.725 4.025 18.725 3.42498 19.125 3.02498C19.525 2.62498 20.125 2.62498 20.525 3.02498C21.325 3.82498 21.725 4.825 21.725 5.925C21.725 6.925 21.325 7.82498 20.525 8.52498L13.525 15.525C12.325 16.725 10.525 16.725 9.32499 15.625Z"/></symbol><symbol id="facebook"   xmlns="http://www.w3.org/2000/svg" viewBox="0 0 9.527 19.083"><path  d="M1082.04-1218.527c0-.056.01-.111.01-.167q0-4.092,0-8.185v-.183h-2.758v-3.4h2.758c0-.09,0-.162,0-.234.008-.994-.018-1.99.034-2.982a4.054,4.054,0,0,1,1.4-3.024,3.894,3.894,0,0,1,2.545-.911c.893-.008,1.787.066,2.68.106a.617.617,0,0,1,.114.027v3.024c-.075,0-.147,0-.219,0-.652.01-1.306-.009-1.955.04a1.1,1.1,0,0,0-1.15,1.119c-.055.933-.014,1.873-.014,2.83h3.056l-.423,3.393h-2.647c-.005.074-.013.134-.013.193q0,4.092,0,8.185c0,.055.01.11.016.166Z" transform="translate(-1079.293 1237.611)"/></symbol><symbol id="instagram-1"   xmlns="http://www.w3.org/2000/svg" viewBox="0 0 19.083 19.111"><path  d="M-226.889-1294.351h-5.752c-.117-.01-.234-.027-.351-.03a10.812,10.812,0,0,1-2.261-.23,4.894,4.894,0,0,1-3.459-2.761,6.862,6.862,0,0,1-.574-2.906c-.021-2.06-.04-4.12-.03-6.18a12.442,12.442,0,0,1,.251-2.95,4.884,4.884,0,0,1,3.029-3.559,7.36,7.36,0,0,1,2.725-.464c1.942-.021,3.884-.037,5.826-.03a14.478,14.478,0,0,1,3.048.216,4.894,4.894,0,0,1,3.8,3.27,7.867,7.867,0,0,1,.391,2.682c.007,2.2.013,4.406,0,6.61a12.867,12.867,0,0,1-.151,1.876,4.966,4.966,0,0,1-1.768,3.17,5.7,5.7,0,0,1-3.365,1.211C-225.983-1294.4-226.436-1294.375-226.889-1294.351Zm-2.877-1.69v-.029c.5,0,1.009.015,1.513,0,1.087-.039,2.183-.025,3.259-.162a3.117,3.117,0,0,0,2.822-2.5,8.338,8.338,0,0,0,.2-1.811q.052-2.66.033-5.321a25.351,25.351,0,0,0-.146-2.775,3.166,3.166,0,0,0-2.661-2.882,11.289,11.289,0,0,0-2.021-.182q-2.688-.04-5.378-.009a18.78,18.78,0,0,0-2.492.16,3.138,3.138,0,0,0-2.746,2.6,10.677,10.677,0,0,0-.185,1.908c-.033,1.543-.045,3.087-.028,4.63.012,1.069.039,2.142.144,3.2a3.161,3.161,0,0,0,1.61,2.549,4.133,4.133,0,0,0,1.948.514C-232.516-1296.1-231.141-1296.074-229.766-1296.04Z" transform="translate(239.319 1313.462)"/></symbol><symbol id="instagram-2"   xmlns="http://www.w3.org/2000/svg" viewBox="0 0 19.083 19.111"><path  d="M-115.582-1184.69a4.915,4.915,0,0,1,4.92-4.909,4.907,4.907,0,0,1,4.9,4.9,4.914,4.914,0,0,1-4.908,4.921A4.92,4.92,0,0,1-115.582-1184.69Zm4.914,3.183a3.173,3.173,0,0,0,3.183-3.177,3.174,3.174,0,0,0-3.173-3.187,3.174,3.174,0,0,0-3.193,3.187A3.174,3.174,0,0,0-110.668-1181.506Z" transform="translate(120.22 1194.241)"/></symbol><symbol id="instagram-3"   xmlns="http://www.w3.org/2000/svg" viewBox="0 0 19.083 19.111"><path  d="M122.371-1225.3a1.131,1.131,0,0,1,1.115,1.178,1.138,1.138,0,0,1-1.169,1.109,1.147,1.147,0,0,1-1.119-1.181A1.139,1.139,0,0,1,122.371-1225.3Z" transform="translate(-107.686 1228.608)"/></symbol><symbol id="linkedin-1"   xmlns="http://www.w3.org/2000/svg" viewBox="0 0 19.847 19.758"><path  d="M107.828,85.395h3.327l.274,2.884c.2-.265.336-.458.485-.643a4.768,4.768,0,0,1,4.5-1.762,4.548,4.548,0,0,1,4.03,4.31,13.721,13.721,0,0,1,.082,1.618c.008,2.419,0,4.838,0,7.257v.424h-4.24c0-.134,0-.263,0-.392,0-2.529,0-5.059-.02-7.588a4.174,4.174,0,0,0-.192-1.1,1.738,1.738,0,0,0-1.533-1.361,2.1,2.1,0,0,0-2.505,2.056c.014,2.662.007,5.324.007,7.986v.409h-4.216Z" transform="translate(-100.682 -79.736)"/></symbol><symbol id="linkedin-2"   xmlns="http://www.w3.org/2000/svg" viewBox="0 0 19.847 19.758"><rect  width="4.198" height="14.094" transform="translate(0.092 5.664)"/></symbol><symbol id="linkedin-3"   xmlns="http://www.w3.org/2000/svg" viewBox="0 0 19.847 19.758"><path  d="M0,2.105A2.121,2.121,0,0,1,2.2,0,2.156,2.156,0,0,1,4.378,2.112,2.19,2.19,0,0,1,2.195,4.236,2.161,2.161,0,0,1,0,2.105" transform="translate(0 0.001)"/></symbol><symbol id="longarrow"   xmlns="http://www.w3.org/2000/svg" viewBox="0 0 25 13"><path d="M24.7889 6.47184L18.3818 12.8789L16.8868 11.3839L20.7311 7.53968L0.294922 7.53968L0.294922 5.40399L20.7311 5.40399L16.8868 1.55975L18.3818 0.064769L24.7889 6.47184Z"/></symbol> </svg>