<svg width="0" height="0" class="hidden iconset">
    <symbol id="box" xmlns="http://www.w3.org/2000/svg" viewBox="0 0 36 35">
        <path d="M7.80145 11.487V27.2817H27.9038V11.487H23.5961V22.9741L17.8526 20.1023L12.1091 22.9741V11.487H7.80145ZM7.80145 30.1535C7.01171 30.1535 6.33565 29.8723 5.77327 29.3099C5.21088 28.7475 4.92969 28.0714 4.92969 27.2817V9.36909C4.92969 9.03406 4.98353 8.71098 5.09122 8.39988C5.19892 8.08877 5.36045 7.80159 5.57583 7.53835L7.37068 5.34863C7.63393 5.01359 7.96298 4.75633 8.35785 4.57684C8.75272 4.39736 9.16553 4.30762 9.5963 4.30762H26.1089C26.5397 4.30762 26.9525 4.39736 27.3474 4.57684C27.7422 4.75633 28.0713 5.01359 28.3345 5.34863L30.1294 7.53835C30.3448 7.80159 30.5063 8.08877 30.614 8.39988C30.7217 8.71098 30.7755 9.03406 30.7755 9.36909V27.2817C30.7755 28.0714 30.4943 28.7475 29.9319 29.3099C29.3696 29.8723 28.6935 30.1535 27.9038 30.1535H7.80145ZM8.3758 8.61526H27.3294L26.1089 7.17938H9.5963L8.3758 8.61526ZM14.9808 11.487V18.3074L17.8526 16.8716L20.7244 18.3074V11.487H14.9808Z"/>
    </symbol>
</svg>